<mxfile host="app.diagrams.net" modified="2023-01-20T12:16:25.182Z" agent="5.0 (Windows NT 10.0; Win64; x64) AppleWebKit/537.36 (KHTML, like Gecko) Chrome/108.0.0.0 Safari/537.36" etag="TpW9G3NluoYzLAfY-WiS" version="20.8.8" type="github">
  <diagram name="Page-1" id="_O9cq3fzZPTdmIxq0RpG">
    <mxGraphModel dx="6586" dy="4056" grid="1" gridSize="10" guides="1" tooltips="1" connect="1" arrows="1" fold="1" page="1" pageScale="1" pageWidth="850" pageHeight="1100" background="#ffffff" math="0" shadow="0">
      <root>
        <mxCell id="0" />
        <mxCell id="1" parent="0" />
        <mxCell id="nHQdbDKxLJY2EcgmaKC6-5" value="Ticket" style="swimlane;childLayout=stackLayout;horizontal=1;startSize=30;horizontalStack=0;rounded=1;fontSize=14;fontStyle=0;strokeWidth=2;resizeParent=0;resizeLast=1;shadow=0;dashed=0;align=center;labelBackgroundColor=default;" vertex="1" parent="1">
          <mxGeometry x="630" y="320" width="240" height="190" as="geometry" />
        </mxCell>
        <mxCell id="nHQdbDKxLJY2EcgmaKC6-6" value="+Attribute1&#xa;+Attribute2&#xa;+Attribute3" style="align=left;strokeColor=none;fillColor=none;spacingLeft=4;fontSize=12;verticalAlign=top;resizable=0;rotatable=0;part=1;labelBackgroundColor=default;" vertex="1" parent="nHQdbDKxLJY2EcgmaKC6-5">
          <mxGeometry y="30" width="240" height="160" as="geometry" />
        </mxCell>
        <mxCell id="nHQdbDKxLJY2EcgmaKC6-7" value="Ticket Document Information" style="swimlane;childLayout=stackLayout;horizontal=1;startSize=30;horizontalStack=0;rounded=1;fontSize=14;fontStyle=1;strokeWidth=2;resizeParent=0;resizeLast=1;shadow=0;dashed=0;align=center;labelBackgroundColor=default;" vertex="1" parent="1">
          <mxGeometry x="30" y="20" width="1850" height="120" as="geometry" />
        </mxCell>
        <mxCell id="nHQdbDKxLJY2EcgmaKC6-8" value="+Attribute1&#xa;+Attribute2&#xa;+Attribute3" style="align=left;strokeColor=none;fillColor=none;spacingLeft=4;fontSize=12;verticalAlign=top;resizable=0;rotatable=0;part=1;labelBackgroundColor=default;" vertex="1" parent="nHQdbDKxLJY2EcgmaKC6-7">
          <mxGeometry y="30" width="1850" height="90" as="geometry" />
        </mxCell>
        <mxCell id="nHQdbDKxLJY2EcgmaKC6-9" value="Ticket Issuance Information" style="swimlane;childLayout=stackLayout;horizontal=1;startSize=30;horizontalStack=0;rounded=1;fontSize=14;fontStyle=0;strokeWidth=2;resizeParent=0;resizeLast=1;shadow=0;dashed=0;align=center;labelBackgroundColor=default;" vertex="1" parent="1">
          <mxGeometry x="1200" y="870" width="220" height="120" as="geometry" />
        </mxCell>
        <mxCell id="nHQdbDKxLJY2EcgmaKC6-10" value="+Attribute1&#xa;+Attribute2&#xa;+Attribute3" style="align=left;strokeColor=none;fillColor=none;spacingLeft=4;fontSize=12;verticalAlign=top;resizable=0;rotatable=0;part=1;labelBackgroundColor=default;" vertex="1" parent="nHQdbDKxLJY2EcgmaKC6-9">
          <mxGeometry y="30" width="220" height="90" as="geometry" />
        </mxCell>
        <mxCell id="nHQdbDKxLJY2EcgmaKC6-11" value="Fare Detail" style="swimlane;childLayout=stackLayout;horizontal=1;startSize=30;horizontalStack=0;rounded=1;fontSize=14;fontStyle=0;strokeWidth=2;resizeParent=0;resizeLast=1;shadow=0;dashed=0;align=center;labelBackgroundColor=default;" vertex="1" parent="1">
          <mxGeometry x="80" y="651" width="400" height="120" as="geometry" />
        </mxCell>
        <mxCell id="nHQdbDKxLJY2EcgmaKC6-12" value="+Attribute1&#xa;+Attribute2&#xa;+Attribute3" style="align=left;strokeColor=none;fillColor=none;spacingLeft=4;fontSize=12;verticalAlign=top;resizable=0;rotatable=0;part=1;labelBackgroundColor=default;" vertex="1" parent="nHQdbDKxLJY2EcgmaKC6-11">
          <mxGeometry y="30" width="400" height="90" as="geometry" />
        </mxCell>
        <mxCell id="nHQdbDKxLJY2EcgmaKC6-13" value="Ticket Reference Identification" style="swimlane;childLayout=stackLayout;horizontal=1;startSize=30;horizontalStack=0;rounded=1;fontSize=14;fontStyle=0;strokeWidth=2;resizeParent=0;resizeLast=1;shadow=0;dashed=0;align=center;labelBackgroundColor=default;" vertex="1" parent="1">
          <mxGeometry x="129" y="356" width="180" height="120" as="geometry" />
        </mxCell>
        <mxCell id="nHQdbDKxLJY2EcgmaKC6-14" value="+Attribute1&#xa;+Attribute2&#xa;+Attribute3" style="align=left;strokeColor=none;fillColor=none;spacingLeft=4;fontSize=12;verticalAlign=top;resizable=0;rotatable=0;part=1;labelBackgroundColor=default;" vertex="1" parent="nHQdbDKxLJY2EcgmaKC6-13">
          <mxGeometry y="30" width="180" height="90" as="geometry" />
        </mxCell>
        <mxCell id="nHQdbDKxLJY2EcgmaKC6-16" value="Commission" style="swimlane;childLayout=stackLayout;horizontal=1;startSize=30;horizontalStack=0;rounded=1;fontSize=14;fontStyle=0;strokeWidth=2;resizeParent=0;resizeLast=1;shadow=0;dashed=0;align=center;labelBackgroundColor=default;" vertex="1" parent="1">
          <mxGeometry x="-130" y="356" width="180" height="120" as="geometry" />
        </mxCell>
        <mxCell id="nHQdbDKxLJY2EcgmaKC6-17" value="+Attribute1&#xa;+Attribute2&#xa;+Attribute3" style="align=left;strokeColor=none;fillColor=none;spacingLeft=4;fontSize=12;verticalAlign=top;resizable=0;rotatable=0;part=1;labelBackgroundColor=default;" vertex="1" parent="nHQdbDKxLJY2EcgmaKC6-16">
          <mxGeometry y="30" width="180" height="90" as="geometry" />
        </mxCell>
        <mxCell id="nHQdbDKxLJY2EcgmaKC6-18" value="Price Quote" style="swimlane;childLayout=stackLayout;horizontal=1;startSize=30;horizontalStack=0;rounded=1;fontSize=14;fontStyle=0;strokeWidth=2;resizeParent=0;resizeLast=1;shadow=0;dashed=0;align=center;labelBackgroundColor=default;" vertex="1" parent="1">
          <mxGeometry x="-460" y="30" width="180" height="120" as="geometry" />
        </mxCell>
        <mxCell id="nHQdbDKxLJY2EcgmaKC6-19" value="+Attribute1&#xa;+Attribute2&#xa;+Attribute3" style="align=left;strokeColor=none;fillColor=none;spacingLeft=4;fontSize=12;verticalAlign=top;resizable=0;rotatable=0;part=1;labelBackgroundColor=default;" vertex="1" parent="nHQdbDKxLJY2EcgmaKC6-18">
          <mxGeometry y="30" width="180" height="90" as="geometry" />
        </mxCell>
        <mxCell id="nHQdbDKxLJY2EcgmaKC6-20" value="Order" style="swimlane;childLayout=stackLayout;horizontal=1;startSize=30;horizontalStack=0;rounded=1;fontSize=14;fontStyle=1;strokeWidth=2;resizeParent=0;resizeLast=1;shadow=0;dashed=0;align=center;labelBackgroundColor=default;" vertex="1" parent="1">
          <mxGeometry x="1030" y="-170" width="360" height="120" as="geometry" />
        </mxCell>
        <mxCell id="nHQdbDKxLJY2EcgmaKC6-21" value="++" style="align=left;spacingLeft=4;fontSize=12;verticalAlign=top;resizable=0;rotatable=0;part=1;labelBackgroundColor=default;" vertex="1" parent="nHQdbDKxLJY2EcgmaKC6-20">
          <mxGeometry y="30" width="360" height="90" as="geometry" />
        </mxCell>
        <mxCell id="nHQdbDKxLJY2EcgmaKC6-22" value="Offer Items" style="swimlane;childLayout=stackLayout;horizontal=1;startSize=30;horizontalStack=0;rounded=1;fontSize=14;fontStyle=0;strokeWidth=2;resizeParent=0;resizeLast=1;shadow=0;dashed=0;align=center;labelBackgroundColor=default;" vertex="1" parent="1">
          <mxGeometry y="-170" width="180" height="120" as="geometry" />
        </mxCell>
        <mxCell id="nHQdbDKxLJY2EcgmaKC6-23" value="+Attribute1&#xa;+Attribute2&#xa;+Attribute3" style="align=left;strokeColor=none;fillColor=none;spacingLeft=4;fontSize=12;verticalAlign=top;resizable=0;rotatable=0;part=1;labelBackgroundColor=default;" vertex="1" parent="nHQdbDKxLJY2EcgmaKC6-22">
          <mxGeometry y="30" width="180" height="90" as="geometry" />
        </mxCell>
        <mxCell id="nHQdbDKxLJY2EcgmaKC6-24" value="Order Amendment" style="swimlane;childLayout=stackLayout;horizontal=1;startSize=30;horizontalStack=0;rounded=1;fontSize=14;fontStyle=0;strokeWidth=2;resizeParent=0;resizeLast=1;shadow=0;dashed=0;align=center;labelBackgroundColor=default;" vertex="1" parent="1">
          <mxGeometry x="410" y="-170" width="180" height="120" as="geometry" />
        </mxCell>
        <mxCell id="nHQdbDKxLJY2EcgmaKC6-25" value="+Attribute1&#xa;+Attribute2&#xa;+Attribute3" style="align=left;strokeColor=none;fillColor=none;spacingLeft=4;fontSize=12;verticalAlign=top;resizable=0;rotatable=0;part=1;labelBackgroundColor=default;" vertex="1" parent="nHQdbDKxLJY2EcgmaKC6-24">
          <mxGeometry y="30" width="180" height="90" as="geometry" />
        </mxCell>
        <mxCell id="nHQdbDKxLJY2EcgmaKC6-26" value="Booking Reference    " style="swimlane;childLayout=stackLayout;horizontal=1;startSize=30;horizontalStack=0;rounded=1;fontSize=14;fontStyle=1;strokeWidth=2;resizeParent=0;resizeLast=1;shadow=0;dashed=0;align=center;labelBackgroundColor=default;" vertex="1" parent="1">
          <mxGeometry x="1087" y="191" width="360" height="120" as="geometry" />
        </mxCell>
        <mxCell id="nHQdbDKxLJY2EcgmaKC6-27" value="+Attribute1&#xa;+Attribute2&#xa;+Attribute3" style="align=left;strokeColor=none;fillColor=none;spacingLeft=4;fontSize=12;verticalAlign=top;resizable=0;rotatable=0;part=1;labelBackgroundColor=default;" vertex="1" parent="nHQdbDKxLJY2EcgmaKC6-26">
          <mxGeometry y="30" width="360" height="90" as="geometry" />
        </mxCell>
        <mxCell id="nHQdbDKxLJY2EcgmaKC6-28" value="Payment Information" style="swimlane;childLayout=stackLayout;horizontal=1;startSize=30;horizontalStack=0;rounded=1;fontSize=14;fontStyle=1;strokeWidth=2;resizeParent=0;resizeLast=1;shadow=0;dashed=0;align=center;labelBackgroundColor=default;" vertex="1" parent="1">
          <mxGeometry x="1730" y="190" width="230" height="120" as="geometry" />
        </mxCell>
        <mxCell id="nHQdbDKxLJY2EcgmaKC6-29" value="+Attribute1&#xa;+Attribute2&#xa;+Attribute3" style="align=left;strokeColor=none;fillColor=none;spacingLeft=4;fontSize=12;verticalAlign=top;resizable=0;rotatable=0;part=1;labelBackgroundColor=default;" vertex="1" parent="nHQdbDKxLJY2EcgmaKC6-28">
          <mxGeometry y="30" width="230" height="90" as="geometry" />
        </mxCell>
        <mxCell id="nHQdbDKxLJY2EcgmaKC6-30" value="Booking Entity" style="swimlane;childLayout=stackLayout;horizontal=1;startSize=30;horizontalStack=0;rounded=1;fontSize=14;fontStyle=1;strokeWidth=2;resizeParent=0;resizeLast=1;shadow=0;dashed=0;align=center;labelBackgroundColor=default;" vertex="1" parent="1">
          <mxGeometry x="1140" y="400" width="360" height="120" as="geometry" />
        </mxCell>
        <mxCell id="nHQdbDKxLJY2EcgmaKC6-31" value="+Attribute1&#xa;+Attribute2&#xa;+Attribute3" style="align=left;strokeColor=none;fillColor=none;spacingLeft=4;fontSize=12;verticalAlign=top;resizable=0;rotatable=0;part=1;labelBackgroundColor=default;" vertex="1" parent="nHQdbDKxLJY2EcgmaKC6-30">
          <mxGeometry y="30" width="360" height="90" as="geometry" />
        </mxCell>
        <mxCell id="nHQdbDKxLJY2EcgmaKC6-34" value="Carrier Fee" style="swimlane;childLayout=stackLayout;horizontal=1;startSize=30;horizontalStack=0;rounded=1;fontSize=14;fontStyle=1;strokeWidth=2;resizeParent=0;resizeLast=1;shadow=0;dashed=0;align=center;fillColor=#f5f5f5;strokeColor=#666666;fontColor=#333333;labelBackgroundColor=default;" vertex="1" parent="1">
          <mxGeometry x="2260" y="370" width="170" height="120" as="geometry" />
        </mxCell>
        <mxCell id="nHQdbDKxLJY2EcgmaKC6-35" value="+Attribute1&#xa;+Attribute2&#xa;+Attribute3" style="align=left;strokeColor=none;fillColor=none;spacingLeft=4;fontSize=12;verticalAlign=top;resizable=0;rotatable=0;part=1;labelBackgroundColor=default;" vertex="1" parent="nHQdbDKxLJY2EcgmaKC6-34">
          <mxGeometry y="30" width="170" height="90" as="geometry" />
        </mxCell>
        <mxCell id="nHQdbDKxLJY2EcgmaKC6-39" value="Carrier" style="swimlane;childLayout=stackLayout;horizontal=1;startSize=30;horizontalStack=0;rounded=1;fontSize=14;fontStyle=1;strokeWidth=2;resizeParent=0;resizeLast=1;shadow=0;dashed=0;align=center;labelBackgroundColor=default;" vertex="1" parent="1">
          <mxGeometry x="1790" y="950" width="360" height="120" as="geometry" />
        </mxCell>
        <mxCell id="nHQdbDKxLJY2EcgmaKC6-40" value="+Attribute1&#xa;+Attribute2&#xa;+Attribute3" style="align=left;strokeColor=none;fillColor=none;spacingLeft=4;fontSize=12;verticalAlign=top;resizable=0;rotatable=0;part=1;labelBackgroundColor=default;" vertex="1" parent="nHQdbDKxLJY2EcgmaKC6-39">
          <mxGeometry y="30" width="360" height="90" as="geometry" />
        </mxCell>
        <mxCell id="nHQdbDKxLJY2EcgmaKC6-41" value="Payment Method" style="swimlane;childLayout=stackLayout;horizontal=1;startSize=30;horizontalStack=0;rounded=1;fontSize=14;fontStyle=1;strokeWidth=2;resizeParent=0;resizeLast=1;shadow=0;dashed=0;align=center;labelBackgroundColor=default;" vertex="1" parent="1">
          <mxGeometry x="2120" y="531" width="180" height="120" as="geometry" />
        </mxCell>
        <mxCell id="nHQdbDKxLJY2EcgmaKC6-42" value="+Attribute1&#xa;+Attribute2&#xa;+Attribute3" style="align=left;strokeColor=none;fillColor=none;spacingLeft=4;fontSize=12;verticalAlign=top;resizable=0;rotatable=0;part=1;labelBackgroundColor=default;" vertex="1" parent="nHQdbDKxLJY2EcgmaKC6-41">
          <mxGeometry y="30" width="180" height="90" as="geometry" />
        </mxCell>
        <mxCell id="nHQdbDKxLJY2EcgmaKC6-53" value="+Attribute1&#xa;+Attribute2&#xa;+Attribute3" style="align=left;strokeColor=none;fillColor=none;spacingLeft=4;fontSize=12;verticalAlign=top;resizable=0;rotatable=0;part=1;labelBackgroundColor=default;" vertex="1" parent="nHQdbDKxLJY2EcgmaKC6-41">
          <mxGeometry y="120" width="180" as="geometry" />
        </mxCell>
        <mxCell id="nHQdbDKxLJY2EcgmaKC6-43" value="Origin Destination" style="swimlane;childLayout=stackLayout;horizontal=1;startSize=30;horizontalStack=0;rounded=1;fontSize=14;fontStyle=1;strokeWidth=2;resizeParent=0;resizeLast=1;shadow=0;dashed=0;align=center;labelBackgroundColor=default;" vertex="1" parent="1">
          <mxGeometry x="2380" y="1060" width="190" height="120" as="geometry" />
        </mxCell>
        <mxCell id="nHQdbDKxLJY2EcgmaKC6-44" value="+Attribute1&#xa;+Attribute2&#xa;+Attribute3" style="align=left;strokeColor=none;fillColor=none;spacingLeft=4;fontSize=12;verticalAlign=top;resizable=0;rotatable=0;part=1;labelBackgroundColor=default;" vertex="1" parent="nHQdbDKxLJY2EcgmaKC6-43">
          <mxGeometry y="30" width="190" height="90" as="geometry" />
        </mxCell>
        <mxCell id="nHQdbDKxLJY2EcgmaKC6-45" value="Baggage Allowance" style="swimlane;childLayout=stackLayout;horizontal=1;startSize=30;horizontalStack=0;rounded=1;fontSize=14;fontStyle=1;strokeWidth=2;resizeParent=0;resizeLast=1;shadow=0;dashed=0;align=center;labelBackgroundColor=default;" vertex="1" parent="1">
          <mxGeometry x="1880" y="1170" width="360" height="120" as="geometry" />
        </mxCell>
        <mxCell id="nHQdbDKxLJY2EcgmaKC6-46" value="+Attribute1&#xa;+Attribute2&#xa;+Attribute3" style="align=left;strokeColor=none;fillColor=none;spacingLeft=4;fontSize=12;verticalAlign=top;resizable=0;rotatable=0;part=1;labelBackgroundColor=default;" vertex="1" parent="nHQdbDKxLJY2EcgmaKC6-45">
          <mxGeometry y="30" width="360" height="90" as="geometry" />
        </mxCell>
        <mxCell id="nHQdbDKxLJY2EcgmaKC6-47" value="Promotion Issuer" style="swimlane;childLayout=stackLayout;horizontal=1;startSize=30;horizontalStack=0;rounded=1;fontSize=14;fontStyle=1;strokeWidth=2;resizeParent=0;resizeLast=1;shadow=0;dashed=0;align=center;labelBackgroundColor=default;" vertex="1" parent="1">
          <mxGeometry x="1880" y="1360" width="360" height="120" as="geometry" />
        </mxCell>
        <mxCell id="nHQdbDKxLJY2EcgmaKC6-48" value="+Attribute1&#xa;+Attribute2&#xa;+Attribute3" style="align=left;strokeColor=none;fillColor=none;spacingLeft=4;fontSize=12;verticalAlign=top;resizable=0;rotatable=0;part=1;labelBackgroundColor=default;" vertex="1" parent="nHQdbDKxLJY2EcgmaKC6-47">
          <mxGeometry y="30" width="360" height="90" as="geometry" />
        </mxCell>
        <mxCell id="nHQdbDKxLJY2EcgmaKC6-49" value="Organization" style="swimlane;childLayout=stackLayout;horizontal=1;startSize=30;horizontalStack=0;rounded=1;fontSize=14;fontStyle=1;strokeWidth=2;resizeParent=0;resizeLast=1;shadow=0;dashed=0;align=center;labelBackgroundColor=default;" vertex="1" parent="1">
          <mxGeometry x="1880" y="1620" width="360" height="120" as="geometry" />
        </mxCell>
        <mxCell id="nHQdbDKxLJY2EcgmaKC6-50" value="+Attribute1&#xa;+Attribute2&#xa;+Attribute3" style="align=left;strokeColor=none;fillColor=none;spacingLeft=4;fontSize=12;verticalAlign=top;resizable=0;rotatable=0;part=1;labelBackgroundColor=default;" vertex="1" parent="nHQdbDKxLJY2EcgmaKC6-49">
          <mxGeometry y="30" width="360" height="90" as="geometry" />
        </mxCell>
        <mxCell id="nHQdbDKxLJY2EcgmaKC6-57" value="Carrier Fee" style="swimlane;childLayout=stackLayout;horizontal=1;startSize=30;horizontalStack=0;rounded=1;fontSize=14;fontStyle=1;strokeWidth=2;resizeParent=0;resizeLast=1;shadow=0;dashed=0;align=center;labelBackgroundColor=default;" vertex="1" parent="1">
          <mxGeometry x="2500" y="687" width="180" height="120" as="geometry" />
        </mxCell>
        <mxCell id="nHQdbDKxLJY2EcgmaKC6-58" value="+Attribute1&#xa;+Attribute2&#xa;+Attribute3" style="align=left;strokeColor=none;fillColor=none;spacingLeft=4;fontSize=12;verticalAlign=top;resizable=0;rotatable=0;part=1;labelBackgroundColor=default;" vertex="1" parent="nHQdbDKxLJY2EcgmaKC6-57">
          <mxGeometry y="30" width="180" height="90" as="geometry" />
        </mxCell>
        <mxCell id="nHQdbDKxLJY2EcgmaKC6-59" value="+Attribute1&#xa;+Attribute2&#xa;+Attribute3" style="align=left;strokeColor=none;fillColor=none;spacingLeft=4;fontSize=12;verticalAlign=top;resizable=0;rotatable=0;part=1;labelBackgroundColor=default;" vertex="1" parent="nHQdbDKxLJY2EcgmaKC6-57">
          <mxGeometry y="120" width="180" as="geometry" />
        </mxCell>
        <mxCell id="nHQdbDKxLJY2EcgmaKC6-69" value="Travel Agency" style="swimlane;childLayout=stackLayout;horizontal=1;startSize=30;horizontalStack=0;rounded=1;fontSize=14;fontStyle=1;strokeWidth=2;resizeParent=0;resizeLast=1;shadow=0;dashed=0;align=center;labelBackgroundColor=default;" vertex="1" parent="1">
          <mxGeometry x="1360" y="1100" width="470" height="120" as="geometry" />
        </mxCell>
        <mxCell id="nHQdbDKxLJY2EcgmaKC6-70" value="+Attribute1&#xa;+Attribute2&#xa;+Attribute3" style="align=left;strokeColor=none;fillColor=none;spacingLeft=4;fontSize=12;verticalAlign=top;resizable=0;rotatable=0;part=1;labelBackgroundColor=default;" vertex="1" parent="nHQdbDKxLJY2EcgmaKC6-69">
          <mxGeometry y="30" width="470" height="90" as="geometry" />
        </mxCell>
        <mxCell id="nHQdbDKxLJY2EcgmaKC6-73" value="Couipon" style="swimlane;childLayout=stackLayout;horizontal=1;startSize=30;horizontalStack=0;rounded=1;fontSize=14;fontStyle=0;strokeWidth=2;resizeParent=0;resizeLast=1;shadow=0;dashed=0;align=center;labelBackgroundColor=default;" vertex="1" parent="1">
          <mxGeometry x="710" y="880" width="410" height="380" as="geometry" />
        </mxCell>
        <mxCell id="nHQdbDKxLJY2EcgmaKC6-74" value="+Attribute1&#xa;+Attribute2&#xa;+Attribute3" style="align=left;strokeColor=none;fillColor=none;spacingLeft=4;fontSize=12;verticalAlign=top;resizable=0;rotatable=0;part=1;labelBackgroundColor=default;" vertex="1" parent="nHQdbDKxLJY2EcgmaKC6-73">
          <mxGeometry y="30" width="410" height="350" as="geometry" />
        </mxCell>
        <mxCell id="nHQdbDKxLJY2EcgmaKC6-77" value="Penalty" style="swimlane;childLayout=stackLayout;horizontal=1;startSize=30;horizontalStack=0;rounded=1;fontSize=14;fontStyle=0;strokeWidth=2;resizeParent=0;resizeLast=1;shadow=0;dashed=0;align=center;labelBackgroundColor=default;" vertex="1" parent="1">
          <mxGeometry x="680" y="651" width="160" height="120" as="geometry" />
        </mxCell>
        <mxCell id="nHQdbDKxLJY2EcgmaKC6-78" value="+Attribute1&#xa;+Attribute2&#xa;+Attribute3" style="align=left;strokeColor=none;fillColor=none;spacingLeft=4;fontSize=12;verticalAlign=top;resizable=0;rotatable=0;part=1;labelBackgroundColor=default;" vertex="1" parent="nHQdbDKxLJY2EcgmaKC6-77">
          <mxGeometry y="30" width="160" height="90" as="geometry" />
        </mxCell>
        <mxCell id="nHQdbDKxLJY2EcgmaKC6-79" value="Fare Price Type" style="swimlane;childLayout=stackLayout;horizontal=1;startSize=30;horizontalStack=0;rounded=1;fontSize=14;fontStyle=0;strokeWidth=2;resizeParent=0;resizeLast=1;shadow=0;dashed=0;align=center;labelBackgroundColor=default;" vertex="1" parent="1">
          <mxGeometry x="70" y="830" width="160" height="120" as="geometry" />
        </mxCell>
        <mxCell id="nHQdbDKxLJY2EcgmaKC6-80" value="+Attribute1&#xa;+Attribute2&#xa;+Attribute3" style="align=left;strokeColor=none;fillColor=none;spacingLeft=4;fontSize=12;verticalAlign=top;resizable=0;rotatable=0;part=1;labelBackgroundColor=default;" vertex="1" parent="nHQdbDKxLJY2EcgmaKC6-79">
          <mxGeometry y="30" width="160" height="90" as="geometry" />
        </mxCell>
        <mxCell id="nHQdbDKxLJY2EcgmaKC6-81" value="Fare Calculation Information" style="swimlane;childLayout=stackLayout;horizontal=1;startSize=30;horizontalStack=0;rounded=1;fontSize=14;fontStyle=0;strokeWidth=2;resizeParent=0;resizeLast=1;shadow=0;dashed=0;align=center;labelBackgroundColor=default;" vertex="1" parent="1">
          <mxGeometry x="260" y="1010" width="240" height="120" as="geometry" />
        </mxCell>
        <mxCell id="nHQdbDKxLJY2EcgmaKC6-82" value="+Attribute1&#xa;+Attribute2&#xa;+Attribute3" style="align=left;strokeColor=none;fillColor=none;spacingLeft=4;fontSize=12;verticalAlign=top;resizable=0;rotatable=0;part=1;labelBackgroundColor=default;" vertex="1" parent="nHQdbDKxLJY2EcgmaKC6-81">
          <mxGeometry y="30" width="240" height="90" as="geometry" />
        </mxCell>
        <mxCell id="nHQdbDKxLJY2EcgmaKC6-86" value="Passenger" style="swimlane;childLayout=stackLayout;horizontal=1;startSize=30;horizontalStack=0;rounded=1;fontSize=14;fontStyle=0;strokeWidth=2;resizeParent=0;resizeLast=1;shadow=0;dashed=0;align=center;labelBackgroundColor=default;" vertex="1" parent="1">
          <mxGeometry x="50" y="1190" width="240" height="310" as="geometry" />
        </mxCell>
        <mxCell id="nHQdbDKxLJY2EcgmaKC6-87" value="+Attribute1&#xa;+Attribute2&#xa;+Attribute3" style="align=left;strokeColor=none;fillColor=none;spacingLeft=4;fontSize=12;verticalAlign=top;resizable=0;rotatable=0;part=1;labelBackgroundColor=default;" vertex="1" parent="nHQdbDKxLJY2EcgmaKC6-86">
          <mxGeometry y="30" width="240" height="280" as="geometry" />
        </mxCell>
        <mxCell id="nHQdbDKxLJY2EcgmaKC6-91" value="Fare Rule" style="swimlane;childLayout=stackLayout;horizontal=1;startSize=30;horizontalStack=0;rounded=1;fontSize=14;fontStyle=0;strokeWidth=2;resizeParent=0;resizeLast=1;shadow=0;dashed=0;align=center;labelBackgroundColor=default;" vertex="1" parent="1">
          <mxGeometry x="350" y="1480" width="240" height="120" as="geometry" />
        </mxCell>
        <mxCell id="nHQdbDKxLJY2EcgmaKC6-92" value="+Attribute1&#xa;+Attribute2&#xa;+Attribute3" style="align=left;strokeColor=none;fillColor=none;spacingLeft=4;fontSize=12;verticalAlign=top;resizable=0;rotatable=0;part=1;labelBackgroundColor=default;" vertex="1" parent="nHQdbDKxLJY2EcgmaKC6-91">
          <mxGeometry y="30" width="240" height="90" as="geometry" />
        </mxCell>
        <mxCell id="nHQdbDKxLJY2EcgmaKC6-96" value="Current CouponFlight Information" style="swimlane;childLayout=stackLayout;horizontal=1;startSize=30;horizontalStack=0;rounded=1;fontSize=14;fontStyle=0;strokeWidth=2;resizeParent=0;resizeLast=1;shadow=0;dashed=0;align=center;labelBackgroundColor=default;" vertex="1" parent="1">
          <mxGeometry x="380" y="1690" width="240" height="120" as="geometry" />
        </mxCell>
        <mxCell id="nHQdbDKxLJY2EcgmaKC6-97" value="+Attribute1&#xa;+Attribute2&#xa;+Attribute3" style="align=left;strokeColor=none;fillColor=none;spacingLeft=4;fontSize=12;verticalAlign=top;resizable=0;rotatable=0;part=1;labelBackgroundColor=default;" vertex="1" parent="nHQdbDKxLJY2EcgmaKC6-96">
          <mxGeometry y="30" width="240" height="90" as="geometry" />
        </mxCell>
        <mxCell id="nHQdbDKxLJY2EcgmaKC6-98" value="Passenger Segment" style="swimlane;childLayout=stackLayout;horizontal=1;startSize=30;horizontalStack=0;rounded=1;fontSize=14;fontStyle=0;strokeWidth=2;resizeParent=0;resizeLast=1;shadow=0;dashed=0;align=center;labelBackgroundColor=default;" vertex="1" parent="1">
          <mxGeometry x="390" y="1860" width="240" height="310" as="geometry" />
        </mxCell>
        <mxCell id="nHQdbDKxLJY2EcgmaKC6-99" value="+Attribute1&#xa;+Attribute2&#xa;+Attribute3" style="align=left;strokeColor=none;fillColor=none;spacingLeft=4;fontSize=12;verticalAlign=top;resizable=0;rotatable=0;part=1;labelBackgroundColor=default;" vertex="1" parent="nHQdbDKxLJY2EcgmaKC6-98">
          <mxGeometry y="30" width="240" height="280" as="geometry" />
        </mxCell>
        <mxCell id="nHQdbDKxLJY2EcgmaKC6-100" value="Passenger Journey" style="swimlane;childLayout=stackLayout;horizontal=1;startSize=30;horizontalStack=0;rounded=1;fontSize=14;fontStyle=0;strokeWidth=2;resizeParent=0;resizeLast=1;shadow=0;dashed=0;align=center;arcSize=0;labelBackgroundColor=default;" vertex="1" parent="1">
          <mxGeometry x="690" y="2160" width="1300" height="310" as="geometry" />
        </mxCell>
        <mxCell id="nHQdbDKxLJY2EcgmaKC6-101" value="+Attribute1&#xa;+Attribute2&#xa;+Attribute3" style="align=left;strokeColor=none;fillColor=none;spacingLeft=4;fontSize=12;verticalAlign=top;resizable=0;rotatable=0;part=1;labelBackgroundColor=default;" vertex="1" parent="nHQdbDKxLJY2EcgmaKC6-100">
          <mxGeometry y="30" width="1300" height="280" as="geometry" />
        </mxCell>
        <mxCell id="nHQdbDKxLJY2EcgmaKC6-102" value="File Fee" style="swimlane;childLayout=stackLayout;horizontal=1;startSize=30;horizontalStack=0;rounded=1;fontSize=14;fontStyle=0;strokeWidth=2;resizeParent=0;resizeLast=1;shadow=0;dashed=0;align=center;labelBackgroundColor=default;" vertex="1" parent="1">
          <mxGeometry x="740" y="1320" width="120" height="120" as="geometry" />
        </mxCell>
        <mxCell id="nHQdbDKxLJY2EcgmaKC6-103" value="+Attribute1&#xa;+Attribute2&#xa;+Attribute3" style="align=left;strokeColor=none;fillColor=none;spacingLeft=4;fontSize=12;verticalAlign=top;resizable=0;rotatable=0;part=1;labelBackgroundColor=default;" vertex="1" parent="nHQdbDKxLJY2EcgmaKC6-102">
          <mxGeometry y="30" width="120" height="90" as="geometry" />
        </mxCell>
        <mxCell id="nHQdbDKxLJY2EcgmaKC6-104" value="Excess Baggage" style="swimlane;childLayout=stackLayout;horizontal=1;startSize=30;horizontalStack=0;rounded=1;fontSize=14;fontStyle=0;strokeWidth=2;resizeParent=0;resizeLast=1;shadow=0;dashed=0;align=center;labelBackgroundColor=default;" vertex="1" parent="1">
          <mxGeometry x="890" y="1320" width="120" height="120" as="geometry" />
        </mxCell>
        <mxCell id="nHQdbDKxLJY2EcgmaKC6-105" value="+Attribute1&#xa;+Attribute2&#xa;+Attribute3" style="align=left;strokeColor=none;fillColor=none;spacingLeft=4;fontSize=12;verticalAlign=top;resizable=0;rotatable=0;part=1;labelBackgroundColor=default;" vertex="1" parent="nHQdbDKxLJY2EcgmaKC6-104">
          <mxGeometry y="30" width="120" height="90" as="geometry" />
        </mxCell>
        <mxCell id="nHQdbDKxLJY2EcgmaKC6-106" value="Key Value Property" style="swimlane;childLayout=stackLayout;horizontal=1;startSize=30;horizontalStack=0;rounded=1;fontSize=14;fontStyle=0;strokeWidth=2;resizeParent=0;resizeLast=1;shadow=0;dashed=0;align=center;labelBackgroundColor=default;" vertex="1" parent="1">
          <mxGeometry x="930" y="1490" width="240" height="120" as="geometry" />
        </mxCell>
        <mxCell id="nHQdbDKxLJY2EcgmaKC6-107" value="+Attribute1&#xa;+Attribute2&#xa;+Attribute3" style="align=left;strokeColor=none;fillColor=none;spacingLeft=4;fontSize=12;verticalAlign=top;resizable=0;rotatable=0;part=1;labelBackgroundColor=default;" vertex="1" parent="nHQdbDKxLJY2EcgmaKC6-106">
          <mxGeometry y="30" width="240" height="90" as="geometry" />
        </mxCell>
        <mxCell id="nHQdbDKxLJY2EcgmaKC6-110" value="Coupon Validity Period" style="swimlane;childLayout=stackLayout;horizontal=1;startSize=30;horizontalStack=0;rounded=1;fontSize=14;fontStyle=0;strokeWidth=2;resizeParent=0;resizeLast=1;shadow=0;dashed=0;align=center;labelBackgroundColor=default;" vertex="1" parent="1">
          <mxGeometry x="1060" y="1650" width="240" height="120" as="geometry" />
        </mxCell>
        <mxCell id="nHQdbDKxLJY2EcgmaKC6-111" value="+Attribute1&#xa;+Attribute2&#xa;+Attribute3" style="align=left;strokeColor=none;fillColor=none;spacingLeft=4;fontSize=12;verticalAlign=top;resizable=0;rotatable=0;part=1;labelBackgroundColor=default;" vertex="1" parent="nHQdbDKxLJY2EcgmaKC6-110">
          <mxGeometry y="30" width="240" height="90" as="geometry" />
        </mxCell>
        <mxCell id="nHQdbDKxLJY2EcgmaKC6-112" value="Service" style="swimlane;childLayout=stackLayout;horizontal=1;startSize=30;horizontalStack=0;rounded=1;fontSize=14;fontStyle=0;strokeWidth=2;resizeParent=0;resizeLast=1;shadow=0;dashed=0;align=center;labelBackgroundColor=default;" vertex="1" parent="1">
          <mxGeometry x="1320" y="1750" width="140" height="380" as="geometry" />
        </mxCell>
        <mxCell id="nHQdbDKxLJY2EcgmaKC6-113" value="+Attribute1&#xa;+Attribute2&#xa;+Attribute3" style="align=left;strokeColor=none;fillColor=none;spacingLeft=4;fontSize=12;verticalAlign=top;resizable=0;rotatable=0;part=1;labelBackgroundColor=default;" vertex="1" parent="nHQdbDKxLJY2EcgmaKC6-112">
          <mxGeometry y="30" width="140" height="350" as="geometry" />
        </mxCell>
        <mxCell id="nHQdbDKxLJY2EcgmaKC6-114" value="Promotion" style="swimlane;childLayout=stackLayout;horizontal=1;startSize=30;horizontalStack=0;rounded=1;fontSize=14;fontStyle=1;strokeWidth=2;resizeParent=0;resizeLast=1;shadow=0;dashed=0;align=center;labelBackgroundColor=default;" vertex="1" parent="1">
          <mxGeometry x="1420" y="1270" width="360" height="120" as="geometry" />
        </mxCell>
        <mxCell id="nHQdbDKxLJY2EcgmaKC6-115" value="+Attribute1&#xa;+Attribute2&#xa;+Attribute3" style="align=left;strokeColor=none;fillColor=none;spacingLeft=4;fontSize=12;verticalAlign=top;resizable=0;rotatable=0;part=1;labelBackgroundColor=default;" vertex="1" parent="nHQdbDKxLJY2EcgmaKC6-114">
          <mxGeometry y="30" width="360" height="90" as="geometry" />
        </mxCell>
        <mxCell id="nHQdbDKxLJY2EcgmaKC6-116" value="Tax Summary" style="swimlane;childLayout=stackLayout;horizontal=1;startSize=30;horizontalStack=0;rounded=1;fontSize=14;fontStyle=1;strokeWidth=2;resizeParent=0;resizeLast=1;shadow=0;dashed=0;align=center;labelBackgroundColor=default;" vertex="1" parent="1">
          <mxGeometry x="1550" y="1850" width="360" height="120" as="geometry" />
        </mxCell>
        <mxCell id="nHQdbDKxLJY2EcgmaKC6-117" value="+Attribute1&#xa;+Attribute2&#xa;+Attribute3" style="align=left;strokeColor=none;fillColor=none;spacingLeft=4;fontSize=12;verticalAlign=top;resizable=0;rotatable=0;part=1;labelBackgroundColor=default;" vertex="1" parent="nHQdbDKxLJY2EcgmaKC6-116">
          <mxGeometry y="30" width="360" height="90" as="geometry" />
        </mxCell>
        <mxCell id="nHQdbDKxLJY2EcgmaKC6-118" value="" style="verticalLabelPosition=bottom;verticalAlign=top;html=1;shape=mxgraph.basic.rect;fillColor2=none;strokeWidth=1;size=20;indent=5;labelBackgroundColor=#561f1f;" vertex="1" parent="1">
          <mxGeometry x="950" y="320" width="120" height="60" as="geometry" />
        </mxCell>
      </root>
    </mxGraphModel>
  </diagram>
</mxfile>
